<?xml version="1.0" standalone="no"?>
<!DOCTYPE svg PUBLIC "-//W3C//DTD SVG 20010904//EN"
 "http://www.w3.org/TR/2001/REC-SVG-20010904/DTD/svg10.dtd">
<svg version="1.0" xmlns="http://www.w3.org/2000/svg"
 width="654.000000pt" height="381.000000pt" viewBox="0 0 654.000000 381.000000"
 preserveAspectRatio="xMidYMid meet">

<g transform="translate(0.000000,381.000000) scale(0.100000,-0.100000)"
fill="#000000" stroke="none">
<path d="M2601 2898 c0 -26 3 -49 7 -52 4 -2 6 12 4 32 -6 62 -10 69 -11 20z"/>
<path d="M2548 2590 c2 -22 8 -42 12 -45 10 -6 4 65 -7 76 -5 5 -7 -9 -5 -31z"/>
<path d="M4113 2325 c0 -24 4 -42 8 -39 5 3 9 23 9 45 0 21 -4 39 -9 39 -4 0
-8 -20 -8 -45z"/>
<path d="M2530 2249 c0 -5 5 -7 10 -4 6 3 10 8 10 11 0 2 -4 4 -10 4 -5 0 -10
-5 -10 -11z"/>
<path d="M2545 2199 c-4 -6 -5 -12 -2 -15 2 -3 7 2 10 11 7 17 1 20 -8 4z"/>
<path d="M3675 2180 c-3 -5 -2 -10 4 -10 6 0 8 -8 5 -17 -5 -15 -4 -16 5 -3 8
12 11 4 11 -33 0 -33 -4 -46 -11 -41 -8 5 -8 1 0 -14 15 -28 14 -45 -1 -36 -7
4 -4 -2 6 -14 11 -12 16 -25 12 -29 -4 -4 -11 -1 -16 7 -11 18 -12 3 -1 -24 6
-17 12 -10 35 37 31 66 28 115 -8 151 -11 11 -20 24 -18 29 3 11 -16 9 -23 -3z"/>
<path d="M3558 2063 c6 -2 9 -10 6 -15 -4 -7 -2 -8 5 -4 13 9 5 26 -12 25 -9
0 -8 -2 1 -6z"/>
<path d="M3566 2014 c-3 -8 0 -21 7 -28 6 -7 21 -24 31 -39 11 -14 23 -24 28
-21 13 9 9 24 -7 24 -10 0 -15 11 -15 35 0 19 -4 35 -10 35 -5 0 -10 -7 -10
-16 0 -8 -4 -13 -10 -9 -5 3 -7 12 -3 20 3 8 3 15 0 15 -3 0 -8 -7 -11 -16z"/>
<path d="M3508 1913 c-19 -5 -15 -11 26 -53 19 -19 36 -18 36 1 0 6 -4 7 -10
4 -5 -3 -10 3 -10 13 0 24 -19 40 -42 35z"/>
</g>
</svg>
